# xmcd
#
# Track frame offsets: 
#        150
#        7994
#        24448
#        45228
#        63370
#        81310
#        104552
#        138287
#        163625
#        181415
#
# Disc length: 2620 seconds
#
# Revision: 0
# Processed by: cddbd v1.5.2PL0 Copyright (c) Steve Scherf et al.
# Submitted via: ExactAudioCopy v0.99pb5
#
DISCID=750a3a0a
DTITLE=Omni- - Winter's End
DYEAR=2009
DGENRE=Rock
TTITLE0=Every Line Is Beautiful
TTITLE1=Since I Met You
TTITLE2=Never Ending Winter
TTITLE3=Colours Return To Gray
TTITLE4=So Amazing
TTITLE5=Time
TTITLE6=Over Me
TTITLE7=Nothing Without You
TTITLE8=Aftermath
TTITLE9=Never Forgotten
EXTD=
EXTT0=
EXTT1=
EXTT2=
EXTT3=
EXTT4=
EXTT5=
EXTT6=
EXTT7=
EXTT8=
EXTT9=
PLAYORDER=
